<svg width="26" height="26" viewBox="0 0 26 26" fill="none" xmlns="http://www.w3.org/2000/svg">
<path d="M12.9641 6.16802C14.1723 6.16802 15.1534 5.16872 15.1534 4.0059C15.1534 2.78857 14.1723 1.80743 12.9641 1.80743C11.7559 1.80743 10.802 2.78857 10.802 4.0059C10.802 5.16872 11.7559 6.16802 12.9641 6.16802ZM16.0619 23.4741C16.5797 23.4741 17.043 23.0926 17.043 22.4566C17.043 22.2204 16.9794 22.0024 16.8522 21.748L14.9082 17.8053C14.7356 17.451 14.5357 17.1331 14.354 16.8787L13.164 15.189L13.2366 14.9619C13.5637 13.9171 13.6909 13.2812 13.7635 12.2819L13.9634 9.4748C14.0633 8.09395 13.2639 6.96746 11.8195 6.96746C10.7657 6.96746 10.0026 7.53979 9.02145 8.49367L7.5316 9.97445C7.02287 10.4741 6.85935 10.8829 6.81393 11.5188L6.62315 13.8263C6.57773 14.4531 6.93202 14.8619 7.49526 14.8983C8.03124 14.9346 8.43096 14.6167 8.49455 13.9444L8.70349 11.4189L9.58468 10.6376C9.7482 10.4923 9.9844 10.574 9.96623 10.8193L9.80271 13.0905C9.72095 14.1897 10.2024 14.9891 10.7475 15.6705L12.6916 18.1142C12.8823 18.3504 12.9096 18.4413 13.0004 18.6139L15.0717 22.82C15.317 23.3106 15.6803 23.4741 16.0619 23.4741ZM16.4889 12.7452H18.6873C19.3232 12.7452 19.7229 12.3728 19.7229 11.8095C19.7229 11.2463 19.3141 10.8738 18.6782 10.8738H16.3798L14.781 9.13867L14.6084 11.6369L15.2897 12.3183C15.6168 12.6453 15.9256 12.7452 16.4889 12.7452ZM7.24998 23.4741C7.56794 23.4741 7.84955 23.3288 8.04941 23.0926L10.9746 19.6132C11.2744 19.2498 11.3107 19.1589 11.4379 18.8046C11.5106 18.5684 11.5742 18.3413 11.6287 18.1233L9.95714 16.0339L9.46658 18.3141L6.69583 21.6027C6.44146 21.8934 6.26886 22.1478 6.26886 22.5111C6.26886 23.0744 6.69583 23.4741 7.24998 23.4741Z" fill="#888C96"/>
</svg>
