<svg width="25" height="24" viewBox="0 0 25 24" fill="none" xmlns="http://www.w3.org/2000/svg">
<path d="M19.12 2.28003C18.5579 1.71726 17.7954 1.40072 17 1.40002H8C7.20435 1.40002 6.44133 1.71609 5.87872 2.2787C5.31611 2.84131 5 3.60437 5 4.40002V21.7C5.00056 21.8436 5.04237 21.984 5.12036 22.1045C5.19836 22.2251 5.30927 22.3207 5.44 22.38C5.57212 22.4407 5.71905 22.4616 5.86285 22.4403C6.00666 22.419 6.14114 22.3564 6.25 22.26L12.5 16.7L18.75 22.26C18.8573 22.3555 18.9901 22.4177 19.1321 22.439C19.2742 22.4603 19.4194 22.4398 19.55 22.38C19.6826 22.3222 19.7956 22.2272 19.8755 22.1065C19.9553 21.9859 19.9986 21.8447 20 21.7V4.40002C19.9993 3.60464 19.6828 2.8421 19.12 2.28003ZM7.12 18.64V4.40002C7.11905 4.28148 7.14154 4.16392 7.18616 4.05409C7.23078 3.94426 7.29665 3.84432 7.38 3.76003C7.55261 3.59527 7.78142 3.50233 8.02002 3.50003H17.02C17.2556 3.50285 17.4811 3.5959 17.65 3.76003C17.8211 3.92927 17.9182 4.15938 17.92 4.40002V18.64L13.41 14.64C13.1666 14.419 12.8488 14.2976 12.52 14.3C12.1884 14.299 11.8681 14.42 11.62 14.64L7.12 18.64Z" fill="#278960"/>
</svg>
