<svg width="32" height="32" viewBox="0 0 32 32" fill="none" xmlns="http://www.w3.org/2000/svg">
<rect width="32" height="32" rx="8" fill="#E0E4EB"/>
<path fill-rule="evenodd" clip-rule="evenodd" d="M10.7996 10.8017C10.9705 10.6308 11.2022 10.5349 11.4438 10.5349C11.6853 10.5349 11.917 10.6308 12.0879 10.8017L15.9993 14.7131L19.9107 10.8017C19.9947 10.7146 20.0953 10.6452 20.2064 10.5975C20.3176 10.5497 20.4372 10.5246 20.5581 10.5235C20.6791 10.5225 20.7991 10.5455 20.911 10.5913C21.023 10.6372 21.1247 10.7048 21.2103 10.7904C21.2958 10.8759 21.3635 10.9776 21.4093 11.0896C21.4551 11.2016 21.4782 11.3216 21.4771 11.4425C21.4761 11.5635 21.4509 11.6831 21.4032 11.7942C21.3554 11.9054 21.286 12.0059 21.199 12.09L17.2876 16.0014L21.199 19.9128C21.365 20.0846 21.4568 20.3147 21.4547 20.5536C21.4527 20.7925 21.3568 21.021 21.1879 21.19C21.019 21.3589 20.7905 21.4547 20.5516 21.4568C20.3127 21.4589 20.0825 21.367 19.9107 21.2011L15.9993 17.2897L12.0879 21.2011C11.9161 21.367 11.6859 21.4589 11.447 21.4568C11.2081 21.4547 10.9796 21.3589 10.8107 21.19C10.6418 21.021 10.5459 20.7925 10.5439 20.5536C10.5418 20.3147 10.6336 20.0846 10.7996 19.9128L14.711 16.0014L10.7996 12.09C10.6288 11.9191 10.5328 11.6874 10.5328 11.4458C10.5328 11.2042 10.6288 10.9725 10.7996 10.8017Z" fill="#535969"/>
</svg>
