<svg width="32" height="32" viewBox="0 0 32 32" fill="none" xmlns="http://www.w3.org/2000/svg">
<path fill-rule="evenodd" clip-rule="evenodd" d="M15.1666 5.33331C14.8905 5.33331 14.6666 5.55717 14.6666 5.83331V14.6666H5.83331C5.55717 14.6666 5.33331 14.8905 5.33331 15.1666V16.8333C5.33331 17.1095 5.55717 17.3333 5.83331 17.3333H14.6666V26.1666C14.6666 26.4428 14.8905 26.6666 15.1666 26.6666H16.8333C17.1095 26.6666 17.3333 26.4428 17.3333 26.1666V17.3333H26.1666C26.4428 17.3333 26.6666 17.1095 26.6666 16.8333V15.1666C26.6666 14.8905 26.4428 14.6666 26.1666 14.6666H17.3333V5.83331C17.3333 5.55717 17.1095 5.33331 16.8333 5.33331H15.1666Z" fill="#535969"/>
</svg>
