<svg width="56" height="56" viewBox="0 0 56 56" fill="none" xmlns="http://www.w3.org/2000/svg">
<g clip-path="url(#clip0_10_451)">
<rect width="56" height="56" rx="18" fill="url(#paint0_linear_10_451)"/>
<g clip-path="url(#clip1_10_451)">
<rect width="56" height="56" rx="14" fill="url(#paint1_linear_10_451)"/>
<circle opacity="0.48" cx="63" cy="39.6666" r="23.3333" fill="#97D1F2"/>
<circle opacity="0.48" cx="-6.99999" cy="39.6666" r="23.3333" fill="#97D1F2"/>
<g filter="url(#filter0_d_10_451)">
<path d="M17.5 21C17.5 26.789 22.211 31.5 28 31.5C33.789 31.5 38.5 26.789 38.5 21C38.5 15.211 33.789 10.5 28 10.5C22.211 10.5 17.5 15.211 17.5 21Z" fill="url(#paint2_radial_10_451)"/>
</g>
<g filter="url(#filter1_d_10_451)">
<path d="M45.6296 56H47.8333V53.375C47.8333 43.2451 40.9115 35 32.4074 35H23.5926C15.0863 35 8.16666 43.2451 8.16666 53.375V56H45.6296Z" fill="white"/>
</g>
</g>
</g>
<defs>
<filter id="filter0_d_10_451" x="15.1667" y="9.33333" width="25.6667" height="25.6667" filterUnits="userSpaceOnUse" color-interpolation-filters="sRGB">
<feFlood flood-opacity="0" result="BackgroundImageFix"/>
<feColorMatrix in="SourceAlpha" type="matrix" values="0 0 0 0 0 0 0 0 0 0 0 0 0 0 0 0 0 0 127 0" result="hardAlpha"/>
<feOffset dy="1.16667"/>
<feGaussianBlur stdDeviation="1.16667"/>
<feComposite in2="hardAlpha" operator="out"/>
<feColorMatrix type="matrix" values="0 0 0 0 0.0845238 0 0 0 0 0.194245 0 0 0 0 0.187662 0 0 0 0.16 0"/>
<feBlend mode="normal" in2="BackgroundImageFix" result="effect1_dropShadow_10_451"/>
<feBlend mode="normal" in="SourceGraphic" in2="effect1_dropShadow_10_451" result="shape"/>
</filter>
<filter id="filter1_d_10_451" x="-1.81142" y="28.7637" width="59.6228" height="40.9562" filterUnits="userSpaceOnUse" color-interpolation-filters="sRGB">
<feFlood flood-opacity="0" result="BackgroundImageFix"/>
<feColorMatrix in="SourceAlpha" type="matrix" values="0 0 0 0 0 0 0 0 0 0 0 0 0 0 0 0 0 0 127 0" result="hardAlpha"/>
<feOffset dy="3.74178"/>
<feGaussianBlur stdDeviation="4.98904"/>
<feComposite in2="hardAlpha" operator="out"/>
<feColorMatrix type="matrix" values="0 0 0 0 0.0845238 0 0 0 0 0.194245 0 0 0 0 0.187662 0 0 0 0.32 0"/>
<feBlend mode="normal" in2="BackgroundImageFix" result="effect1_dropShadow_10_451"/>
<feBlend mode="normal" in="SourceGraphic" in2="effect1_dropShadow_10_451" result="shape"/>
</filter>
<linearGradient id="paint0_linear_10_451" x1="28" y1="0" x2="28" y2="32.6667" gradientUnits="userSpaceOnUse">
<stop stop-color="#DCE4F1"/>
<stop offset="1" stop-color="#F4F8FF"/>
</linearGradient>
<linearGradient id="paint1_linear_10_451" x1="28" y1="0" x2="28" y2="32.6667" gradientUnits="userSpaceOnUse">
<stop stop-color="#DCE4F1"/>
<stop offset="1" stop-color="#F4F8FF"/>
</linearGradient>
<radialGradient id="paint2_radial_10_451" cx="0" cy="0" r="1" gradientUnits="userSpaceOnUse" gradientTransform="translate(28.4038 31.2308) rotate(-90) scale(33.9231 22.4398)">
<stop stop-color="#5FD9A6"/>
<stop offset="1" stop-color="#278960"/>
</radialGradient>
<clipPath id="clip0_10_451">
<rect width="56" height="56" rx="18" fill="white"/>
</clipPath>
<clipPath id="clip1_10_451">
<rect width="56" height="56" rx="14" fill="white"/>
</clipPath>
</defs>
</svg>
