<svg width="56" height="56" viewBox="0 0 56 56" fill="none" xmlns="http://www.w3.org/2000/svg">
<g clip-path="url(#clip0_10_440)">
<rect width="56" height="56" rx="18" fill="url(#paint0_linear_10_440)"/>
<rect x="17.5" y="22.1667" width="21" height="16.3333" fill="#3FA97C"/>
<circle opacity="0.48" cx="2.33333" cy="2.33333" r="23.3333" fill="#97D1F2"/>
<path opacity="0.48" d="M46.6667 19.8333L70.9154 61.8333H22.418L46.6667 19.8333Z" fill="#97D1F2"/>
<g filter="url(#filter0_d_10_440)">
<path fill-rule="evenodd" clip-rule="evenodd" d="M19.8333 9.04169C19.8333 8.55844 20.2251 8.16669 20.7083 8.16669H22.4583C22.9416 8.16669 23.3333 8.55844 23.3333 9.04169V10.5H32.6667V9.04169C32.6667 8.55844 33.0584 8.16669 33.5417 8.16669H35.2917C35.7749 8.16669 36.1667 8.55844 36.1667 9.04169V10.5H39.2498C40.8366 10.4998 42.3641 11.1031 43.5224 12.1876C44.6808 13.2721 45.3832 14.7566 45.4873 16.34L45.4998 16.75V18H10.5V16.75C10.4998 15.1632 11.1031 13.6357 12.1876 12.4774C13.2721 11.3191 14.7566 10.6166 16.34 10.5125L16.75 10.5H19.8333V9.04169Z" fill="url(#paint1_radial_10_440)"/>
</g>
<g filter="url(#filter1_d_10_440)">
<path d="M45.4998 19.9616V38.7115C45.5001 40.2983 44.8967 41.8258 43.8122 42.9841C42.7277 44.1424 41.2432 44.8449 39.6598 44.949L39.2498 44.9615H16.75C15.1632 44.9617 13.6357 44.3584 12.4774 43.2739C11.319 42.1894 10.6166 40.7049 10.5125 39.1215L10.5 38.7115V19.9616H45.4998ZM31.7899 23.0466C30.4649 23.0466 29.4074 23.4016 28.6274 24.1116C27.8449 24.8216 27.4549 25.7816 27.4549 26.9916C27.4549 27.6916 27.6324 28.3091 27.9874 28.8541C28.3424 29.3966 28.8249 29.8241 29.4374 30.1366C28.7074 30.4615 28.1424 30.929 27.7374 31.534C27.3336 32.1407 27.1227 32.8553 27.1324 33.584C27.1324 34.829 27.5574 35.8165 28.4074 36.554C29.2574 37.289 30.3874 37.6565 31.7999 37.6565C33.2074 37.6565 34.3324 37.2915 35.1799 36.5565C36.0249 35.8265 36.4499 34.834 36.4499 33.584C36.4499 32.829 36.2499 32.1515 35.8499 31.554C35.4214 30.931 34.8274 30.44 34.1349 30.1366C34.7283 29.8465 35.2339 29.4039 35.5999 28.8541C35.9574 28.3091 36.1374 27.6891 36.1374 26.9916C36.1374 25.7816 35.7449 24.8216 34.9624 24.1116C34.1824 23.4016 33.1249 23.0466 31.7899 23.0466ZM24.2399 23.1941H23.9374L18.39 25.2341V27.2366L21.8774 26.0466V37.4615H24.2399V23.1941ZM31.7799 31.114C32.4724 31.114 33.0249 31.329 33.4449 31.764C33.8649 32.1965 34.0749 32.764 34.0749 33.4665C34.0749 34.1915 33.8749 34.754 33.4749 35.1565C33.0749 35.5615 32.5174 35.7615 31.7999 35.7615C31.0849 35.7615 30.5249 35.554 30.1174 35.1365C29.7099 34.7215 29.5049 34.164 29.5049 33.4665C29.5049 32.7565 29.7124 32.189 30.1249 31.759C30.5399 31.329 31.0899 31.114 31.7799 31.114ZM31.7899 24.9516C32.0604 24.9396 32.3302 24.9871 32.5803 25.0908C32.8304 25.1944 33.0547 25.3517 33.2374 25.5516C33.5949 25.9516 33.7724 26.4616 33.7724 27.0816C33.7724 27.7316 33.5974 28.2491 33.2424 28.6316C32.8874 29.0166 32.4049 29.2091 31.7999 29.2091C31.1949 29.2091 30.7149 29.0166 30.3599 28.6341C30.0049 28.2491 29.8274 27.7341 29.8274 27.0816C29.8274 26.4241 30.0024 25.9041 30.3549 25.5241C30.7049 25.1416 31.1849 24.9516 31.7899 24.9516Z" fill="white"/>
</g>
</g>
<defs>
<filter id="filter0_d_10_440" x="-0.269173" y="2.7821" width="56.5382" height="31.3717" filterUnits="userSpaceOnUse" color-interpolation-filters="sRGB">
<feFlood flood-opacity="0" result="BackgroundImageFix"/>
<feColorMatrix in="SourceAlpha" type="matrix" values="0 0 0 0 0 0 0 0 0 0 0 0 0 0 0 0 0 0 127 0" result="hardAlpha"/>
<feOffset dy="5.38459"/>
<feGaussianBlur stdDeviation="5.38459"/>
<feComposite in2="hardAlpha" operator="out"/>
<feColorMatrix type="matrix" values="0 0 0 0 0.100709 0 0 0 0 0.269184 0 0 0 0 0.22875 0 0 0 0.28 0"/>
<feBlend mode="normal" in2="BackgroundImageFix" result="effect1_dropShadow_10_440"/>
<feBlend mode="normal" in="SourceGraphic" in2="effect1_dropShadow_10_440" result="shape"/>
</filter>
<filter id="filter1_d_10_440" x="-0.269173" y="14.577" width="56.5382" height="46.5382" filterUnits="userSpaceOnUse" color-interpolation-filters="sRGB">
<feFlood flood-opacity="0" result="BackgroundImageFix"/>
<feColorMatrix in="SourceAlpha" type="matrix" values="0 0 0 0 0 0 0 0 0 0 0 0 0 0 0 0 0 0 127 0" result="hardAlpha"/>
<feOffset dy="5.38459"/>
<feGaussianBlur stdDeviation="5.38459"/>
<feComposite in2="hardAlpha" operator="out"/>
<feColorMatrix type="matrix" values="0 0 0 0 0.100709 0 0 0 0 0.269184 0 0 0 0 0.22875 0 0 0 0.28 0"/>
<feBlend mode="normal" in2="BackgroundImageFix" result="effect1_dropShadow_10_440"/>
<feBlend mode="normal" in="SourceGraphic" in2="effect1_dropShadow_10_440" result="shape"/>
</filter>
<linearGradient id="paint0_linear_10_440" x1="28" y1="0" x2="28" y2="32.6667" gradientUnits="userSpaceOnUse">
<stop stop-color="#DCE4F1"/>
<stop offset="1" stop-color="#F4F8FF"/>
</linearGradient>
<radialGradient id="paint1_radial_10_440" cx="0" cy="0" r="1" gradientUnits="userSpaceOnUse" gradientTransform="translate(28.673 17.8739) rotate(-90) scale(15.8845 37.3994)">
<stop stop-color="#5FD9A6"/>
<stop offset="1" stop-color="#278960"/>
</radialGradient>
<clipPath id="clip0_10_440">
<rect width="56" height="56" rx="18" fill="white"/>
</clipPath>
</defs>
</svg>
