<svg width="56" height="56" viewBox="0 0 56 56" fill="none" xmlns="http://www.w3.org/2000/svg">
<g clip-path="url(#clip0_10_422)">
<rect width="56" height="56" rx="18" fill="url(#paint0_linear_10_422)"/>
<circle opacity="0.48" cx="2.33333" cy="2.33333" r="23.3333" fill="url(#paint1_linear_10_422)"/>
<path opacity="0.48" d="M46.6667 19.8333L70.9154 61.8333H22.418L46.6667 19.8333Z" fill="url(#paint2_linear_10_422)"/>
<g filter="url(#filter0_d_10_422)">
<path d="M44.0629 25.3122H34.8693L41.3701 18.6017C41.8584 18.0976 42.1327 17.4138 42.1326 16.7009C42.1326 15.988 41.8582 15.3044 41.3698 14.8003C40.8814 14.2963 40.219 14.0132 39.5284 14.0132C38.8378 14.0133 38.1755 14.2966 37.6872 14.8007L31.1871 21.5112V12.0211C31.1871 11.3083 30.9128 10.6246 30.4245 10.1205C29.9362 9.61649 29.2739 9.33331 28.5833 9.33331C27.8928 9.33331 27.2305 9.61649 26.7422 10.1205C26.2539 10.6246 25.9796 11.3083 25.9796 12.0211V21.5112L19.4788 14.8007C18.9891 14.3034 18.3289 14.026 17.6421 14.0289C16.9552 14.0318 16.2972 14.3148 15.8115 14.8161C15.3258 15.3175 15.0517 15.9967 15.0489 16.7057C15.0461 17.4148 15.3148 18.0962 15.7966 18.6017L22.2974 25.3122H13.1038C12.4132 25.3122 11.751 25.5954 11.2626 26.0994C10.7743 26.6035 10.5 27.2871 10.5 28C10.5 28.7128 10.7743 29.3965 11.2626 29.9005C11.751 30.4046 12.4132 30.6878 13.1038 30.6878H22.2974L15.7966 37.3983C15.3148 37.9037 15.0461 38.5852 15.0489 39.2942C15.0517 40.0033 15.3258 40.6825 15.8115 41.1838C16.2972 41.6852 16.9552 41.9682 17.6421 41.971C18.3289 41.9739 18.9891 41.6965 19.4788 41.1992L25.9796 34.4887V43.9789C25.9796 44.6917 26.2539 45.3754 26.7422 45.8794C27.2305 46.3835 27.8928 46.6666 28.5833 46.6666C29.2739 46.6666 29.9362 46.3835 30.4245 45.8794C30.9128 45.3754 31.1871 44.6917 31.1871 43.9789V34.4887L37.6872 41.1992C38.1755 41.7034 38.8378 41.9866 39.5284 41.9867C40.219 41.9868 40.8814 41.7037 41.3698 41.1996C41.8582 40.6956 42.1326 40.0119 42.1326 39.299C42.1327 38.5861 41.8584 37.9024 41.3701 37.3983L34.8693 30.6878H44.0629C44.7535 30.6878 45.4157 30.4046 45.904 29.9005C46.3923 29.3965 46.6667 28.7128 46.6667 28C46.6667 27.2871 46.3923 26.6035 45.904 26.0994C45.4157 25.5954 44.7535 25.3122 44.0629 25.3122Z" fill="white"/>
</g>
</g>
<defs>
<filter id="filter0_d_10_422" x="-3.49999" y="-2.09808e-05" width="64.1667" height="65.3333" filterUnits="userSpaceOnUse" color-interpolation-filters="sRGB">
<feFlood flood-opacity="0" result="BackgroundImageFix"/>
<feColorMatrix in="SourceAlpha" type="matrix" values="0 0 0 0 0 0 0 0 0 0 0 0 0 0 0 0 0 0 127 0" result="hardAlpha"/>
<feOffset dy="4.66667"/>
<feGaussianBlur stdDeviation="7"/>
<feComposite in2="hardAlpha" operator="out"/>
<feColorMatrix type="matrix" values="0 0 0 0 0 0 0 0 0 0 0 0 0 0 0 0 0 0 0.16 0"/>
<feBlend mode="normal" in2="BackgroundImageFix" result="effect1_dropShadow_10_422"/>
<feBlend mode="normal" in="SourceGraphic" in2="effect1_dropShadow_10_422" result="shape"/>
</filter>
<linearGradient id="paint0_linear_10_422" x1="28" y1="0" x2="28" y2="32.6667" gradientUnits="userSpaceOnUse">
<stop stop-color="#DCE4F1"/>
<stop offset="1" stop-color="#F4F8FF"/>
</linearGradient>
<linearGradient id="paint1_linear_10_422" x1="2.33333" y1="-21" x2="2.33333" y2="25.6667" gradientUnits="userSpaceOnUse">
<stop stop-color="#9BD8FB"/>
<stop offset="1" stop-color="#85B1CA"/>
</linearGradient>
<linearGradient id="paint2_linear_10_422" x1="46.6667" y1="19.8333" x2="46.6667" y2="75.8333" gradientUnits="userSpaceOnUse">
<stop stop-color="#9BD8FB"/>
<stop offset="1" stop-color="#85B1CA"/>
</linearGradient>
<clipPath id="clip0_10_422">
<rect width="56" height="56" rx="18" fill="white"/>
</clipPath>
</defs>
</svg>
