<svg width="26" height="26" viewBox="0 0 26 26" fill="none" xmlns="http://www.w3.org/2000/svg">
<path d="M3.25 18.1458C3.25 19.2183 3.72531 20.1811 4.46875 20.8514V23.0208C4.46875 23.6911 5.01719 24.2396 5.6875 24.2396H6.90625C7.57656 24.2396 8.125 23.6911 8.125 23.0208V21.8021H17.875V23.0208C17.875 23.6911 18.4234 24.2396 19.0938 24.2396H20.3125C20.9828 24.2396 21.5312 23.6911 21.5312 23.0208V20.8514C22.2747 20.1811 22.75 19.2183 22.75 18.1458V5.95831C22.75 1.69269 18.3869 1.08331 13 1.08331C7.61312 1.08331 3.25 1.69269 3.25 5.95831V18.1458ZM7.51562 19.3646C6.50406 19.3646 5.6875 18.548 5.6875 17.5364C5.6875 16.5249 6.50406 15.7083 7.51562 15.7083C8.52719 15.7083 9.34375 16.5249 9.34375 17.5364C9.34375 18.548 8.52719 19.3646 7.51562 19.3646ZM18.4844 19.3646C17.4728 19.3646 16.6562 18.548 16.6562 17.5364C16.6562 16.5249 17.4728 15.7083 18.4844 15.7083C19.4959 15.7083 20.3125 16.5249 20.3125 17.5364C20.3125 18.548 19.4959 19.3646 18.4844 19.3646ZM20.3125 12.6614H5.6875V5.95831C10.4886 4.75803 15.5114 4.75803 20.3125 5.95831V12.6614Z" fill="#888C96"/>
</svg>
