<svg width="26" height="26" viewBox="0 0 26 26" fill="none" xmlns="http://www.w3.org/2000/svg">
<path fill-rule="evenodd" clip-rule="evenodd" d="M7.58331 2.58331C7.58331 1.75489 8.25489 1.08331 9.08331 1.08331H16.9166C17.7451 1.08331 18.4166 1.75489 18.4166 2.58331V4.70415C18.4295 4.7057 18.4424 4.70736 18.4554 4.70914C19.8167 4.89657 20.8821 5.58712 21.4346 6.76104C21.7798 7.49104 22.4309 9.3555 22.7959 11.1213L23.6739 12.2262C24.5913 13.4198 24.9169 14.3866 24.9169 16.1327V21.9826C24.9169 22.7323 24.3348 23.3143 23.5752 23.3143H22.3915C21.6319 23.3143 21.0498 22.7323 21.0498 21.9826V20.2759C18.8598 20.4239 15.6143 20.5226 13.0001 20.5226C10.3859 20.5226 7.14035 20.414 4.94048 20.2759V21.9826C4.94048 22.7323 4.35845 23.3143 3.60872 23.3143H2.41507C1.66534 23.3143 1.08331 22.7323 1.08331 21.9826V16.1327C1.08331 14.3866 1.39899 13.4198 2.32629 12.2262L3.20426 11.1213C3.56926 9.3555 4.22035 7.49104 4.56562 6.76104C5.10819 5.58712 6.18346 4.87684 7.54481 4.70914C7.55774 4.70753 7.57056 4.70602 7.58331 4.70463V2.58331ZM10.8874 1.94996H12.2958V3.35835H10.8874V1.94996ZM9.47897 3.35837H10.8874V4.76675H9.47897V3.35837ZM15.1126 1.94996H13.7042V3.35835H15.1126V1.94996ZM12.2958 3.35837H13.7042V4.76675H12.2958V3.35837ZM16.521 3.35837H15.1126V4.76675H16.521V3.35837ZM6.37089 7.41212C6.07494 7.93496 5.64089 9.23712 5.414 10.2137C5.32521 10.6379 5.49292 10.8352 5.9467 10.8155C7.46589 10.7267 9.37968 10.6281 13.0001 10.6281C16.6205 10.6281 18.5343 10.7267 20.0535 10.8155C20.4974 10.8352 20.6848 10.6379 20.5763 10.2137C20.3396 9.23712 19.9351 7.92509 19.6293 7.41212C19.3333 6.88928 19.0177 6.68212 18.406 6.59333C17.7056 6.47495 16.0089 6.4355 13.0001 6.4355C9.98144 6.4355 8.29454 6.49468 7.59414 6.59333C6.98251 6.67225 6.65697 6.88928 6.37089 7.41212ZM4.11183 16.1129C4.11183 17.0501 4.83197 17.7604 5.76913 17.7604C6.7063 17.7604 7.41657 17.0501 7.41657 16.1129C7.41657 15.1659 6.7063 14.4556 5.76913 14.4556C4.83197 14.4556 4.11183 15.1659 4.11183 16.1129ZM18.5738 16.1129C18.5738 17.0501 19.284 17.7604 20.2311 17.7604C21.1682 17.7604 21.8785 17.0501 21.8785 16.1129C21.8785 15.1659 21.1682 14.4556 20.2311 14.4556C19.284 14.4556 18.5738 15.1659 18.5738 16.1129ZM9.13306 16.1524C9.13306 16.8528 9.6263 17.3461 10.3366 17.3461H15.6636C16.364 17.3461 16.8573 16.8528 16.8573 16.1524C16.8573 15.452 16.364 14.9588 15.6636 14.9588H10.3366C9.6263 14.9588 9.13306 15.452 9.13306 16.1524Z" fill="#888C96"/>
</svg>
