<svg width="26" height="26" viewBox="0 0 26 26" fill="none" xmlns="http://www.w3.org/2000/svg">
<path d="M2.4151 23.3143H3.60875C4.35848 23.3143 4.94051 22.7323 4.94051 21.9825V20.2759C7.14038 20.414 10.3859 20.5225 13.0001 20.5225C15.6143 20.5225 18.8599 20.4239 21.0499 20.2759V21.9825C21.0499 22.7323 21.6319 23.3143 22.3915 23.3143H23.5753C24.3349 23.3143 24.9169 22.7323 24.9169 21.9825V16.1327C24.9169 14.3866 24.5914 13.4198 23.6739 12.2262L22.796 11.1213C22.431 9.35549 21.7799 7.49103 21.4346 6.76103C20.8822 5.58711 19.8168 4.89656 18.4554 4.70913C17.7353 4.61048 15.6242 4.56116 13.0001 4.56116C10.3761 4.56116 8.25511 4.62035 7.54484 4.70913C6.18349 4.87683 5.10822 5.58711 4.56565 6.76103C4.22038 7.49103 3.56929 9.35549 3.20429 11.1213L2.32632 12.2262C1.39902 13.4198 1.08334 14.3866 1.08334 16.1327V21.9825C1.08334 22.7323 1.66537 23.3143 2.4151 23.3143ZM5.41403 10.2137C5.64092 9.23711 6.07498 7.93495 6.37092 7.41211C6.657 6.88927 6.98254 6.67224 7.59417 6.59332C8.29457 6.49467 9.98147 6.43549 13.0001 6.43549C16.0089 6.43549 17.7057 6.47494 18.4061 6.59332C19.0177 6.68211 19.3334 6.88927 19.6293 7.41211C19.9351 7.92508 20.3396 9.23711 20.5764 10.2137C20.6849 10.6379 20.4974 10.8352 20.0535 10.8155C18.5343 10.7267 16.6205 10.6281 13.0001 10.6281C9.37971 10.6281 7.46592 10.7267 5.94673 10.8155C5.49295 10.8352 5.32524 10.6379 5.41403 10.2137ZM5.76916 17.7604C4.832 17.7604 4.11186 17.0501 4.11186 16.1129C4.11186 15.1659 4.832 14.4556 5.76916 14.4556C6.70633 14.4556 7.4166 15.1659 7.4166 16.1129C7.4166 17.0501 6.70633 17.7604 5.76916 17.7604ZM20.2311 17.7604C19.2841 17.7604 18.5738 17.0501 18.5738 16.1129C18.5738 15.1659 19.2841 14.4556 20.2311 14.4556C21.1682 14.4556 21.8785 15.1659 21.8785 16.1129C21.8785 17.0501 21.1682 17.7604 20.2311 17.7604ZM10.3366 17.346C9.62633 17.346 9.13309 16.8528 9.13309 16.1524C9.13309 15.452 9.62633 14.9587 10.3366 14.9587H15.6636C16.364 14.9587 16.8573 15.452 16.8573 16.1524C16.8573 16.8528 16.364 17.346 15.6636 17.346H10.3366Z" fill="#19191A"/>
</svg>
